<svg xmlns="http://www.w3.org/2000/svg" viewBox="0 0 1200 1200">
    <path d="M578.697 145.416l-.5 151.346H484.95l-6.576 6.027-6.576 6.027v252.317l6.576 6.027 6.576 6.028H578.266l.464 360.656 45.36-2.073.004-358.583H717.46l6.576-6.028 6.576-6.027V308.816l-6.576-6.027-6.576-6.027H624.213l-.5-151.346h-45.016zm-466.433.736l-.494 228.08H66.838c-49.737 0-52.464.512-58.912 11.088-3.364 5.518-3.438 10.693-3.442 244.207-.003 223.667.188 238.947 3.075 244.584 5.969 11.66 9.872 12.475 59.76 12.475h44.411l.512 169.508 45.41-2.145V886.586h44.075c49.156 0 53.61-.813 59.76-10.899 3.517-5.77 3.554-8.209 3.554-245.279 0-234.39-.073-239.57-3.437-245.088-6.45-10.577-9.172-11.088-58.967-11.088h-44.985V148.295l-45.388-2.143zm932.496 117.621v198.49l-45.336.008c-41.86.007-45.77.27-50.975 3.444-11.78 7.182-11.196-1.807-10.678 164.799l.47 150.703 6.575 6.027 6.579 6.026h93.365v260.404l45.385 1.762.488-262.166h46.373c44.36 0 46.575-.159 51.047-3.676 10.35-8.142 9.889-.535 9.879-162.18-.007-144.103-.107-148.588-3.444-154.06-6.45-10.578-9.172-11.09-58.966-11.09h-44.985v-198.49h-45.777zM516.693 340.78h169.024V529.17H516.693V340.779zM50.252 420.01h170.785v420.8H50.252v-420.8zm1101.906 86.239v243.006h-84.566c-66.032 0-84.752-.483-85.408-2.201-.463-1.21-.636-55.682-.385-121.047l.455-118.844 84.953-.457 84.951-.457z"/>
</svg>
