<svg xmlns="http://www.w3.org/2000/svg" viewBox="0 0 78.442 13.139" height="49.66" width="236.474">
  <flowRoot xml:space="preserve" style="line-height:1.25;-inkscape-font-specification:'Roboto Condensed, '" transform="translate(.344 -191.17)" font-style="normal" font-variant="normal" font-weight="400" font-stretch="normal" font-size="53.333" font-family="Roboto Condensed" letter-spacing="0" word-spacing="0" fill="#000" fill-opacity="1" stroke="none">
    <flowRegion>
      <path d="M-3.27-193.221h175.542v63.32H-3.27z"/>
    </flowRegion>
    <flowPara/>
  </flowRoot>
  <text style="line-height:1.25;-inkscape-font-specification:'Roboto Condensed, '" x="21.459" y="15.818" font-weight="400" font-size="3.528" font-family="Roboto Condensed" letter-spacing="0" word-spacing="0" stroke-width=".265"/>
  <path style="line-height:1.25;-inkscape-font-specification:'Roboto Bold';text-align:center" d="M4.76 7.679h1.524q-.077 1.269-.849 2.08-.767.807-2.13.807-1.422 0-2.24-1.075-.818-1.08-.818-2.927V6.02q0-1.847.838-2.927.839-1.087 2.236-1.087 1.387 0 2.124.835.737.829.844 2.11H4.764q-.05-.744-.37-1.138-.316-.4-1.073-.4-1.484 0-1.524 2.464v.686q0 1.292.345 1.944.35.651 1.164.651.722 0 1.057-.365.34-.372.396-1.115zM8.31 1.67v8.781H6.835v-8.78zM9.08 2.665q0-.372.224-.612.223-.246.6-.246.375 0 .599.246.223.24.223.612 0 .366-.223.612-.224.24-.6.24t-.6-.24q-.223-.246-.223-.612zm1.565 1.6v6.186H9.172V4.266zM13.799 5.49q-.61 0-.9.582v4.38h-1.473V4.265h1.382l.05.68q.575-.795 1.576-.795 1.062 0 1.459.944.564-.944 1.651-.944.793 0 1.276.526.482.526.487 1.807v3.967h-1.473V6.507q0-.618-.224-.818-.218-.2-.6-.2-.65 0-.91.692v4.27h-1.468V6.518q0-.612-.223-.817-.224-.212-.61-.212zM23.188 10.451q-.092-.217-.147-.554-.534.669-1.388.669-.787 0-1.326-.52-.539-.526-.539-1.333 0-.971.64-1.503.64-.538 1.896-.538h.656v-.36q0-.428-.199-.68-.193-.257-.615-.257-.787 0-.787.743H19.91q0-.806.635-1.384.636-.583 1.703-.583.95 0 1.575.543.63.544.63 1.63v2.755q.01.824.219 1.275v.097zm-1.215-1.149q.371 0 .63-.183.265-.188.377-.411V7.633h-.6q-.584 0-.854.28-.27.275-.27.68 0 .31.189.51.193.2.528.2zM27.917 10.411q-.412.155-.884.155-.722 0-1.149-.423-.426-.423-.426-1.407V5.472h-.808V4.266h.808V2.739h1.468v1.527h.935v1.206h-.935v3.093q0 .389.142.514.143.126.422.126.224 0 .427-.046zM32.93 9.445q-.264.423-.802.772-.539.349-1.342.349-1.28 0-2.002-.87-.721-.874-.726-2.109v-.24q0-1.4.69-2.298.697-.898 1.876-.898 1.184 0 1.804.835.62.835.62 2.207v.703h-3.502q.077.6.422.972.346.366.91.366.838 0 1.326-.692zm-2.316-3.962q-.468 0-.722.355-.254.354-.33.926h2.042v-.126q-.01-.497-.249-.823-.233-.332-.741-.332z" font-weight="700" font-size="10.407" font-family="Roboto" letter-spacing="-.429" word-spacing="-.198" text-anchor="middle" fill="#fff"/>
  <path style="line-height:1.25;-inkscape-font-specification:'Roboto Bold';text-align:center" d="M35.524 10.451V2.127h4.949v1.39h-3.42V5.5h2.922v1.344h-2.922v2.224h3.435v1.383z" font-weight="700" font-size="10.407" font-family="Roboto" letter-spacing="-.429" word-spacing="-.198" text-anchor="middle" fill="#ccc"/>
  <path style="line-height:1.25;-inkscape-font-specification:'Roboto Bold';text-align:center" d="M42.046 4.266l.9 1.84.925-1.84h1.57L43.876 7.29l1.63 3.161h-1.57l-.985-1.95-.97 1.95H40.4l1.631-3.161-1.565-3.024z" font-weight="700" font-size="10.407" font-family="Roboto" letter-spacing="-.429" word-spacing="-.198" text-anchor="middle" fill="#ccc"/>
  <path style="line-height:1.25;-inkscape-font-specification:'Roboto Bold';text-align:center" d="M50.114 7.679h1.525q-.077 1.269-.85 2.08-.766.807-2.128.807-1.423 0-2.241-1.075-.818-1.08-.818-2.927V6.02q0-1.847.838-2.927.839-1.087 2.236-1.087 1.387 0 2.124.835.737.829.844 2.11h-1.525q-.05-.744-.37-1.138-.316-.4-1.073-.4-1.484 0-1.524 2.464v.686q0 1.292.345 1.944.35.651 1.164.651.721 0 1.057-.365.34-.372.396-1.115zM54.477 5.49q-.64 0-.93.554v4.407H52.08v-8.78h1.468v3.263q.575-.783 1.469-.783.808 0 1.306.538.503.537.508 1.835v3.927h-1.474v-3.91q0-.6-.228-.823-.229-.229-.65-.229zM60.7 10.451q-.091-.217-.147-.554-.534.669-1.387.669-.788 0-1.326-.52-.54-.526-.54-1.333 0-.971.641-1.503.64-.538 1.896-.538h.655v-.36q0-.428-.198-.68-.193-.257-.615-.257-.788 0-.788.743h-1.468q0-.806.635-1.384.635-.583 1.702-.583.95 0 1.576.543.63.544.63 1.63v2.755q.01.824.218 1.275v.097zm-1.214-1.149q.37 0 .63-.183.264-.188.376-.411V7.633h-.6q-.584 0-.853.28-.27.275-.27.68 0 .31.188.51.194.2.529.2zM65.048 5.49q-.625 0-.93.594v4.367H62.65V4.266h1.377l.05.709q.59-.824 1.581-.824.778 0 1.255.52.478.52.483 1.813v3.967h-1.474V6.507q0-.595-.228-.806-.224-.212-.646-.212zM70.25 12.887q-.498 0-1.098-.234-.594-.235-.95-.732l.65-1.006q.544.686 1.337.686.584 0 .91-.355.325-.349.325-1v-.332q-.518.652-1.337.652-1.02 0-1.615-.88-.595-.881-.605-2.207v-.166q0-1.412.594-2.287.6-.875 1.637-.875.91 0 1.412.698l.056-.583h1.332v5.974q0 1.275-.737 1.96-.732.687-1.91.687zm-.915-5.454q0 .743.27 1.269.274.52.853.52.671 0 .966-.571V6.055q-.29-.566-.955-.566-.575 0-.854.532-.28.526-.28 1.292zM78.287 9.445q-.264.423-.803.772-.538.349-1.341.349-1.28 0-2.002-.87-.722-.874-.727-2.109v-.24q0-1.4.691-2.298.696-.898 1.875-.898 1.184 0 1.804.835.62.835.62 2.207v.703h-3.501q.076.6.422.972.345.366.91.366.838 0 1.326-.692zM75.97 5.483q-.467 0-.721.355-.255.354-.33.926h2.042v-.126q-.01-.497-.249-.823-.234-.332-.742-.332z" font-weight="700" font-size="10.407" font-family="Roboto" letter-spacing="-.429" word-spacing="-.198" text-anchor="middle" fill="#fff"/>
</svg>
