<svg xmlns="http://www.w3.org/2000/svg" viewBox="0 0 1200 1200">
    <g>
        <path d="M552.796 91.684a24.354 24.365 0 0 0-20.844 11.393L221.38 597.39a24.354 24.365 0 0 0 8.244 33.93l310.572 183.602a24.354 24.365 0 0 0 24.76 0l310.57-183.603a24.354 24.365 0 0 0 8.245-33.929L573.199 103.077a24.354 24.365 0 0 0-20.403-11.393z"/>
        <path d="M242.831 699.013a24.354 24.365 0 0 0-19.714 39.722l310.572 381.328a24.354 24.365 0 0 0 37.773 0l310.571-381.328a24.354 24.365 0 0 0-31.266-36.357L552.575 878.671l-298.19-176.293a24.354 24.365 0 0 0-11.554-3.365z"/>
    </g>
</svg>
