<svg xmlns="http://www.w3.org/2000/svg" viewBox="0 0 1200 1200">
    <path d="M619.922 139.61c-29.327 0-53.208 7.907-71.64 23.827-17.596 15.922-26.407 36.917-26.407 62.891 0 25.977 8.81 46.893 26.406 62.813 18.433 15.92 42.314 23.907 71.64 23.906 29.328 0 53.207-7.985 71.641-23.906 18.435-15.92 27.657-36.836 27.657-62.813 0-25.974-9.223-46.97-27.657-62.89-18.434-15.92-42.313-23.828-71.64-23.829zm91.719 280.234c-26.814 0-64.939 5.849-114.373 17.58-49.437 11.731-89.211 23.915-119.375 36.482l10 50.237 43.984-8.75c22.624 0 33.982 14.658 33.982 43.984v314.217c0 16.758-6.257 28.868-18.826 36.408-14.245 10.055-36.478 18.453-66.642 25.156l10.078 45.233c71.221-7.542 121.454-11.25 150.781-11.25 29.327 0 80.049 3.708 152.11 11.25l8.75-45.233c-29.328-8.38-51.48-17.19-66.563-26.408-8.38-4.19-13.815-8.388-16.328-12.578-1.676-4.19-2.578-11.685-2.578-22.578V565.625c0-42.732 6.749-81.682 20.156-116.875l-25.156-28.906z"/>
</svg>
