<svg xmlns="http://www.w3.org/2000/svg" viewBox="0 0 1200 1200">
    <path d="M298.502 223.055v756.322h328.457c51.583 0 95.821-6.32 132.715-18.959C856.692 927.282 905.2 846.832 905.2 719.07V486.947c0-63.88-11.615-115.975-34.846-156.285-41.675-71.738-122.977-107.607-243.908-107.607H298.502zm152.187 118.367h162.948c50.9 0 86.77 10.249 107.607 30.746 21.18 20.496 31.768 52.094 31.768 94.795v271.58c0 43.384-10.247 74.641-30.742 93.771-20.498 19.13-56.709 28.696-108.633 28.696H503.06v-362.4h-52.372V341.421z"/>
</svg>
