<?xml version="1.0" standalone="no"?>
<!DOCTYPE svg PUBLIC "-//W3C//DTD SVG 20010904//EN"
 "http://www.w3.org/TR/2001/REC-SVG-20010904/DTD/svg10.dtd">
<svg version="1.0" xmlns="http://www.w3.org/2000/svg"
 width="700.000000pt" height="700.000000pt" viewBox="0 0 700.000000 700.000000"
 preserveAspectRatio="xMidYMid meet">
<metadata>
Created by potrace 1.11, written by Peter Selinger 2001-2013
</metadata>
<g transform="translate(0.000000,700.000000) scale(0.100000,-0.100000)"
fill="#000000" stroke="none">
<path d="M1010 3501 l0 -3201 1438 0 c868 0 1504 4 1607 10 673 41 1156 211
1493 525 320 299 489 666 569 1235 16 114 18 235 18 1405 0 1385 0 1376 -55
1655 -48 241 -91 372 -182 555 -75 152 -150 263 -247 370 -272 297 -651 490
-1138 580 -321 60 -281 58 -1960 62 l-1543 4 0 -3200z m2965 2180 c342 -50
532 -140 675 -320 62 -78 102 -155 140 -271 61 -185 60 -170 60 -1606 0 -786
-4 -1339 -10 -1384 -17 -129 -50 -241 -101 -348 -122 -254 -345 -382 -749
-432 -58 -8 -320 -14 -672 -17 l-578 -5 0 1536 0 1536 -220 0 -220 0 0 666 0
666 798 -5 c532 -3 824 -9 877 -16z"/>
</g>
</svg>
